<svg xmlns="http://www.w3.org/2000/svg" viewBox="0 0 128 128">
  <defs>
    <linearGradient id="bg" x1="0" y1="0" x2="128" y2="128">
      <stop offset="0" stop-color="#5b4b8a"/>
      <stop offset="1" stop-color="#332a56"/>
    </linearGradient>
  </defs>
  <rect width="128" height="128" rx="28" fill="url(#bg)"/>

  <g transform="rotate(-6 64 92)">
    <rect x="22" y="83" width="80" height="20" rx="4" fill="#FF6F59"/>
    <rect x="22" y="83" width="80" height="6" rx="3" fill="#FFAD9E"/>
  </g>

  <g transform="rotate(5 64 76)">
    <rect x="27" y="67" width="70" height="18" rx="4" fill="#22B8A8"/>
    <rect x="27" y="67" width="70" height="5" rx="2.5" fill="#7FE0D4"/>
  </g>

  <g transform="rotate(-4 64 61)">
    <rect x="33" y="52" width="58" height="17" rx="4" fill="#F5B841"/>
    <rect x="33" y="52" width="58" height="5" rx="2.5" fill="#FBDA92"/>
  </g>

  <path d="M78 26 L92 26 L92 58 L85 51 L78 58 Z" fill="#FF4D6D"/>

  <g fill="#FFFFFF" opacity="0.85">
    <circle cx="30" cy="34" r="2.5"/>
    <circle cx="40" cy="27" r="1.6"/>
  </g>
</svg>
